<?xml version="1.0" encoding="utf-8"?>
<!-- Generator: Adobe Illustrator 15.0.0, SVG Export Plug-In . SVG Version: 6.00 Build 0)  -->
<!DOCTYPE svg PUBLIC "-//W3C//DTD SVG 1.1//EN" "http://www.w3.org/Graphics/SVG/1.1/DTD/svg11.dtd">
<svg version="1.1" id="Layer_1" xmlns="http://www.w3.org/2000/svg" xmlns:xlink="http://www.w3.org/1999/xlink" x="0px" y="0px"
	 width="612px" height="792px" viewBox="3160 0 612 792" enable-background="new 3160 0 612 792" xml:space="preserve">
<path d="M1416.998,192.696v76.5h-76.5v38.25h76.5V556.07v19.125h19.125h248.629v76.5h38.25v-76.5h76.5v-38.25H1482.74
	l202.012-202.007V517.82h38.25V296.688l71.121-71.121l-27.492-27.492l-71.121,71.121h-221.137v38.25h182.887l-202.012,202.007
	V192.696H1416.998z"/>
<line fill="none" stroke="#020202" stroke-width="40" stroke-miterlimit="10" x1="88.435" y1="229.656" x2="504.436" y2="229.656"/>
<line fill="none" stroke="#020202" stroke-width="40" stroke-miterlimit="10" x1="228.029" y1="211.656" x2="358.523" y2="211.656"/>
<line fill="none" stroke="#020202" stroke-width="40" stroke-miterlimit="10" x1="199.435" y1="600.242" x2="126.035" y2="229.656"/>
<line fill="none" stroke="#020202" stroke-width="40" stroke-miterlimit="10" x1="463.836" y1="236.656" x2="390.436" y2="607.242"/>
<line fill="none" stroke="#020202" stroke-width="40" stroke-miterlimit="10" x1="179.435" y1="600.242" x2="411.102" y2="600.242"/>
<path fill="none" stroke="#020202" stroke-width="40" stroke-miterlimit="10" d="M2498.254,252.646"/>
<path fill="none" stroke="#020202" stroke-width="40" stroke-miterlimit="10" d="M3318.257,432.213"/>
<g id="XMLID_1_">
	<g>
		<polygon points="3256.104,406.121 3367.564,406.121 3313.32,491.977 		"/>
	</g>
	<g>
		<line fill="none" stroke="#020202" stroke-miterlimit="10" x1="3256.104" y1="406.121" x2="3367.564" y2="406.121"/>
		<line fill="none" stroke="#020202" stroke-miterlimit="10" x1="3367.564" y1="406.121" x2="3313.32" y2="491.977"/>
		<line fill="none" stroke="#020202" stroke-miterlimit="10" x1="3256.104" y1="406.121" x2="3313.32" y2="491.977"/>
	</g>
</g>
<line fill="none" stroke="#020202" stroke-width="20" stroke-miterlimit="10" x1="3445.714" y1="396.387" x2="3445.714" y2="444.41"/>
<line fill="none" stroke="#020202" stroke-width="20" stroke-miterlimit="10" x1="3435.739" y1="444.032" x2="3494.996" y2="444.032"/>
<line fill="none" stroke="#020202" stroke-width="40" stroke-miterlimit="10" x1="2686.369" y1="249.409" x2="2686.369" y2="595.648"/>
<line fill="none" stroke="#020202" stroke-width="40" stroke-miterlimit="10" x1="2667.552" y1="575.967" x2="3026.334" y2="575.967"/>
<line fill="none" stroke="#020202" stroke-width="40" stroke-miterlimit="10" x1="3006.573" y1="593.564" x2="3006.573" y2="266.921"/>
<line fill="none" stroke="#020202" stroke-width="40" stroke-miterlimit="10" x1="3026.334" y1="268.24" x2="2850.5" y2="268.24"/>
<g>
	<path fill="#020202" d="M1990.027,307.28l5.118,0.377c1.774,0.149,3.504,0.314,5.254,0.503c3.487,0.377,6.963,0.839,10.42,1.384
		c6.916,1.091,13.763,2.517,20.504,4.272c13.483,3.51,26.543,8.342,38.924,14.373c24.775,12.051,46.778,28.916,64.555,49.062
		c17.794,20.138,31.362,43.554,39.825,68.38c8.5,24.823,11.833,51.011,10.148,76.52c-1.649-25.521-8.314-50.374-19.388-72.692
		c-11.043-22.337-26.424-42.13-44.728-58.064c-18.298-15.951-39.504-28.034-61.893-35.488c-11.192-3.734-22.675-6.323-34.224-7.753
		c-5.774-0.715-11.565-1.142-17.348-1.285c-2.892-0.071-5.78-0.072-8.663-0.003c-1.437,0.035-2.895,0.089-4.309,0.156l-4.449,0.259
		L1990.027,307.28z"/>
</g>
<path fill="none" stroke="#020202" stroke-width="40" stroke-miterlimit="10" d="M3122.44,533.221"/>
<path fill="none" stroke="#020202" stroke-width="40" stroke-miterlimit="10" d="M2001.185,379.243"/>
<g id="XMLID_2_">
	<g>
		<polygon points="1990.933,402.157 1917.086,328.31 1990.933,254.463 		"/>
	</g>
	<g>
		<line fill="none" stroke="#020202" stroke-miterlimit="10" x1="1990.933" y1="254.463" x2="1990.933" y2="402.157"/>
		<line fill="none" stroke="#020202" stroke-miterlimit="10" x1="1990.933" y1="402.157" x2="1917.086" y2="328.31"/>
		<line fill="none" stroke="#020202" stroke-miterlimit="10" x1="1990.933" y1="254.463" x2="1917.086" y2="328.31"/>
	</g>
</g>
<g>
	<path fill="#020202" d="M2414.224,350.103l-4.449-0.259c-1.414-0.067-2.872-0.121-4.309-0.156
		c-2.883-0.069-5.771-0.068-8.663,0.003c-5.782,0.144-11.573,0.57-17.348,1.285c-11.549,1.43-23.031,4.019-34.224,7.754
		c-22.389,7.453-43.595,19.536-61.892,35.487c-18.305,15.936-33.686,35.729-44.729,58.065
		c-11.073,22.318-17.737,47.171-19.388,72.692c-1.685-25.509,1.648-51.697,10.149-76.52c8.463-24.826,22.03-48.242,39.824-68.38
		c17.776-20.146,39.78-37.012,64.555-49.063c12.38-6.03,25.44-10.863,38.924-14.373c6.741-1.756,13.588-3.182,20.503-4.272
		c3.458-0.545,6.934-1.007,10.422-1.384c1.749-0.188,3.479-0.354,5.253-0.503l5.118-0.377L2414.224,350.103z"/>
</g>
<path fill="none" stroke="#020202" stroke-width="40" stroke-miterlimit="10" d="M1671.64,740.926"/>
<path fill="none" stroke="#020202" stroke-width="40" stroke-miterlimit="10" d="M2402.815,382.066"/>
<g id="XMLID_3_">
	<g>
		<polygon points="2413.067,404.985 2486.914,331.128 2413.067,257.282 		"/>
	</g>
	<g>
		<line fill="none" stroke="#020202" stroke-miterlimit="10" x1="2413.067" y1="257.282" x2="2413.067" y2="404.985"/>
		<line fill="none" stroke="#020202" stroke-miterlimit="10" x1="2413.067" y1="404.985" x2="2486.914" y2="331.128"/>
		<line fill="none" stroke="#020202" stroke-miterlimit="10" x1="2413.067" y1="257.282" x2="2486.914" y2="331.128"/>
	</g>
</g>
<line fill="none" stroke="#020202" stroke-width="40" stroke-miterlimit="10" x1="713" y1="266.061" x2="713" y2="654.646"/>
<line fill="none" stroke="#020202" stroke-width="40" stroke-miterlimit="10" x1="692.998" y1="652.646" x2="1135.167" y2="652.646"/>
<line fill="none" stroke="#020202" stroke-width="40" stroke-miterlimit="10" x1="1115.235" y1="654.547" x2="1115.235" y2="367.753"/>
<line fill="none" stroke="#020202" stroke-width="40" stroke-miterlimit="10" x1="1121.5" y1="381.854" x2="988" y2="258.354"/>
<line fill="none" stroke="#020202" stroke-width="40" stroke-miterlimit="10" x1="1001.136" y1="264.061" x2="693" y2="264.061"/>
<line fill="none" stroke="#020202" stroke-width="40" stroke-miterlimit="10" x1="766.5" y1="264.061" x2="766.5" y2="397.354"/>
<line fill="none" stroke="#020202" stroke-width="40" stroke-miterlimit="10" x1="746.5" y1="397.354" x2="980.5" y2="397.354"/>
<line fill="none" stroke="#020202" stroke-width="40" stroke-miterlimit="10" x1="960.5" y1="397.354" x2="960.5" y2="282.061"/>
<line fill="none" stroke="#020202" stroke-width="40" stroke-miterlimit="10" x1="2850.5" y1="248.25" x2="2850.5" y2="430.242"/>
<g id="XMLID_4_">
	<g>
		<polygon points="2931.854,425.421 2849.073,508.201 2766.294,425.421 		"/>
	</g>
	<g>
		<line fill="none" stroke="#020202" stroke-miterlimit="10" x1="2766.294" y1="425.421" x2="2931.854" y2="425.421"/>
		<line fill="none" stroke="#020202" stroke-miterlimit="10" x1="2931.854" y1="425.421" x2="2849.073" y2="508.201"/>
		<line fill="none" stroke="#020202" stroke-miterlimit="10" x1="2766.294" y1="425.421" x2="2849.073" y2="508.201"/>
	</g>
</g>
<path fill="none" stroke="#020202" stroke-width="30" stroke-miterlimit="10" d="M3311.834,432.213
	c0-79.803,64.576-144.379,144.38-144.379"/>
<path fill="none" stroke="#020202" stroke-width="30" stroke-miterlimit="10" d="M3600.501,432.121
	c0-79.752-64.534-144.288-144.287-144.288"/>
<g>
	<path fill="#020202" d="M3615.501,432.216l-0.282,3.782c-0.111,1.312-0.234,2.59-0.375,3.883c-0.281,2.578-0.624,5.146-1.029,7.703
		c-0.811,5.111-1.869,10.171-3.172,15.153c-2.604,9.964-6.184,19.613-10.648,28.759c-8.923,18.302-21.401,34.549-36.297,47.667
		c-14.89,13.131-32.196,23.136-50.537,29.367c-18.337,6.26-37.676,8.699-56.505,7.437c18.839-1.237,37.176-6.177,53.636-14.366
		c16.474-8.166,31.062-19.53,42.8-33.044c11.749-13.51,20.641-29.158,26.115-45.67c2.743-8.255,4.641-16.721,5.684-25.234
		c0.522-4.257,0.831-8.525,0.931-12.787c0.051-2.13,0.049-4.259-0.006-6.384c-0.026-1.059-0.067-2.133-0.118-3.175l-0.195-3.28
		L3615.501,432.216z"/>
</g>
</svg>
